<svg xmlns="http://www.w3.org/2000/svg" width="20" height="20" viewBox="0 0 20 20" fill="none">
    <path
        d="M16.2742 5.91263C16.4653 5.29638 16.5265 4.64723 16.4542 4.00611C16.3819 3.36499 16.1775 2.74582 15.8539 2.18763C15.799 2.0926 15.7201 2.01369 15.6251 1.95883C15.53 1.90397 15.4222 1.87511 15.3125 1.87513C14.5845 1.87361 13.8663 2.04237 13.2151 2.36793C12.564 2.6935 11.9981 3.16683 11.5625 3.75013H9.6875C9.25193 3.16683 8.68598 2.6935 8.03485 2.36793C7.38372 2.04237 6.66548 1.87361 5.9375 1.87513C5.82777 1.87511 5.71996 1.90397 5.62492 1.95883C5.52988 2.01369 5.45096 2.0926 5.39609 2.18763C5.07254 2.74582 4.86814 3.36499 4.7958 4.00611C4.72346 4.64723 4.78474 5.29638 4.97578 5.91263C4.58963 6.58663 4.38278 7.34839 4.375 8.12513V8.75013C4.37632 9.80763 4.76021 10.8289 5.4558 11.6255C6.15139 12.422 7.11169 12.94 8.15938 13.0837C7.73173 13.631 7.4996 14.3056 7.5 15.0001V15.6251H5.625C5.12772 15.6251 4.65081 15.4276 4.29917 15.076C3.94754 14.7243 3.75 14.2474 3.75 13.7501C3.75 13.3398 3.66917 12.9334 3.51212 12.5542C3.35508 12.1751 3.12489 11.8306 2.83471 11.5404C2.54453 11.2502 2.20003 11.0201 1.82089 10.863C1.44174 10.706 1.03538 10.6251 0.625 10.6251C0.45924 10.6251 0.300269 10.691 0.183058 10.8082C0.065848 10.9254 0 11.0844 0 11.2501C0 11.4159 0.065848 11.5749 0.183058 11.6921C0.300269 11.8093 0.45924 11.8751 0.625 11.8751C1.12228 11.8751 1.59919 12.0727 1.95083 12.4243C2.30246 12.7759 2.5 13.2529 2.5 13.7501C2.5 14.5789 2.82924 15.3738 3.41529 15.9598C4.00134 16.5459 4.7962 16.8751 5.625 16.8751H7.5V18.1251C7.5 18.2909 7.56585 18.4499 7.68306 18.5671C7.80027 18.6843 7.95924 18.7501 8.125 18.7501C8.29076 18.7501 8.44973 18.6843 8.56694 18.5671C8.68415 18.4499 8.75 18.2909 8.75 18.1251V15.0001C8.75 14.5029 8.94754 14.0259 9.29917 13.6743C9.65081 13.3227 10.1277 13.1251 10.625 13.1251C11.1223 13.1251 11.5992 13.3227 11.9508 13.6743C12.3025 14.0259 12.5 14.5029 12.5 15.0001V18.1251C12.5 18.2909 12.5658 18.4499 12.6831 18.5671C12.8003 18.6843 12.9592 18.7501 13.125 18.7501C13.2908 18.7501 13.4497 18.6843 13.5669 18.5671C13.6842 18.4499 13.75 18.2909 13.75 18.1251V15.0001C13.7504 14.3056 13.5183 13.631 13.0906 13.0837C14.1383 12.94 15.0986 12.422 15.7942 11.6255C16.4898 10.8289 16.8737 9.80763 16.875 8.75013V8.12513C16.8672 7.34839 16.6604 6.58663 16.2742 5.91263ZM15.625 8.75013C15.625 9.57893 15.2958 10.3738 14.7097 10.9598C14.1237 11.5459 13.3288 11.8751 12.5 11.8751H8.75C7.9212 11.8751 7.12634 11.5459 6.54029 10.9598C5.95424 10.3738 5.625 9.57893 5.625 8.75013V8.12513C5.63266 7.50015 5.81978 6.89054 6.16406 6.36888C6.22824 6.28429 6.26981 6.18474 6.28485 6.07962C6.29988 5.97451 6.28789 5.8673 6.25 5.7681C6.0872 5.34825 6.00886 4.90041 6.01945 4.45023C6.03004 4.00005 6.12936 3.55639 6.31172 3.14466C6.82322 3.19969 7.31577 3.36913 7.75287 3.64042C8.18997 3.91172 8.5604 4.27791 8.83672 4.71185C8.89303 4.7999 8.97051 4.87243 9.06209 4.92279C9.15368 4.97315 9.25642 4.99974 9.36094 5.00013H11.8883C11.9932 5.00014 12.0964 4.97373 12.1884 4.92335C12.2805 4.87297 12.3583 4.80024 12.4148 4.71185C12.6911 4.27787 13.0615 3.91165 13.4986 3.64035C13.9358 3.36905 14.4283 3.19963 14.9398 3.14466C15.122 3.55649 15.221 4.00021 15.2313 4.45039C15.2417 4.90057 15.163 5.34836 15 5.7681C14.9622 5.86635 14.9496 5.97247 14.9632 6.07684C14.9769 6.18121 15.0164 6.28052 15.0781 6.36576C15.4258 6.88742 15.6157 7.49828 15.625 8.12513V8.75013Z"
        fill="#3B3B3B" />
</svg>