<svg width="20" height="20" viewBox="0 0 20 20" fill="none" xmlns="http://www.w3.org/2000/svg">
<path d="M16.875 8.12501V8.75001C16.8737 9.80751 16.4898 10.8288 15.7942 11.6254C15.0986 12.4219 14.1383 12.9399 13.0906 13.0836C13.5183 13.6308 13.7504 14.3055 13.75 15V18.125C13.75 18.2908 13.6842 18.4497 13.5669 18.567C13.4497 18.6842 13.2908 18.75 13.125 18.75H8.125C7.95924 18.75 7.80027 18.6842 7.68306 18.567C7.56585 18.4497 7.5 18.2908 7.5 18.125V16.875H5.625C4.7962 16.875 4.00134 16.5458 3.41529 15.9597C2.82924 15.3737 2.5 14.5788 2.5 13.75C2.5 13.2527 2.30246 12.7758 1.95083 12.4242C1.59919 12.0726 1.12228 11.875 0.625 11.875C0.45924 11.875 0.300269 11.8092 0.183058 11.692C0.065848 11.5747 0 11.4158 0 11.25C0 11.0842 0.065848 10.9253 0.183058 10.8081C0.300269 10.6909 0.45924 10.625 0.625 10.625C1.03538 10.625 1.44174 10.7058 1.82089 10.8629C2.20003 11.0199 2.54453 11.2501 2.83471 11.5403C3.12489 11.8305 3.35508 12.175 3.51212 12.5541C3.66917 12.9333 3.75 13.3396 3.75 13.75C3.75 14.2473 3.94754 14.7242 4.29917 15.0758C4.65081 15.4275 5.12772 15.625 5.625 15.625H7.5V15C7.4996 14.3055 7.73173 13.6308 8.15938 13.0836C7.11169 12.9399 6.15139 12.4219 5.4558 11.6254C4.76021 10.8288 4.37632 9.80751 4.375 8.75001V8.12501C4.38278 7.34827 4.58963 6.58651 4.97578 5.91251C4.78474 5.29626 4.72346 4.64711 4.7958 4.00599C4.86814 3.36487 5.07254 2.7457 5.39609 2.18751C5.45096 2.09248 5.52988 2.01357 5.62492 1.95871C5.71996 1.90385 5.82777 1.87499 5.9375 1.87501C6.66548 1.87349 7.38372 2.04225 8.03485 2.36781C8.68598 2.69337 9.25193 3.16671 9.6875 3.75001H11.5625C11.9981 3.16671 12.564 2.69337 13.2151 2.36781C13.8663 2.04225 14.5845 1.87349 15.3125 1.87501C15.4222 1.87499 15.53 1.90385 15.6251 1.95871C15.7201 2.01357 15.799 2.09248 15.8539 2.18751C16.1775 2.74569 16.3819 3.3649 16.4541 4.00604C16.5263 4.64719 16.4648 5.29634 16.2734 5.91251C16.6603 6.58624 16.8675 7.34813 16.875 8.12501Z" fill="#3B3B3B"/>
</svg>
