<svg xmlns="http://www.w3.org/2000/svg" width="20" height="20" viewBox="0 0 20 20" fill="none">
    <path
        d="M17.8813 2.04626C17.7844 1.96264 17.6666 1.90702 17.5405 1.88541C17.4144 1.8638 17.2848 1.877 17.1656 1.9236L1.33283 8.11969C1.10845 8.20695 0.918478 8.36473 0.791525 8.56929C0.664573 8.77386 0.607509 9.01412 0.628924 9.25392C0.65034 9.49372 0.749076 9.72008 0.910267 9.89891C1.07146 10.0777 1.28638 10.1994 1.52268 10.2455L5.62502 11.0509V15.6252C5.62421 15.8743 5.69826 16.118 5.83755 16.3245C5.97685 16.5311 6.17498 16.6911 6.40627 16.7838C6.6372 16.8781 6.89116 16.9007 7.13513 16.8487C7.3791 16.7968 7.60179 16.6726 7.77424 16.4923L9.75237 14.4408L12.8906 17.1877C13.1171 17.3885 13.4091 17.4996 13.7117 17.5002C13.8444 17.5001 13.9762 17.4792 14.1024 17.4384C14.3086 17.373 14.494 17.2547 14.6403 17.0953C14.7866 16.9359 14.8885 16.7409 14.936 16.5299L18.1071 2.73454C18.1354 2.61012 18.1294 2.48033 18.0896 2.35908C18.0498 2.23783 17.9778 2.12969 17.8813 2.04626ZM13.1047 4.85876L6.10549 9.87125L2.23049 9.1111L13.1047 4.85876ZM6.87502 15.6252V11.9158L8.81174 13.6142L6.87502 15.6252ZM13.7133 16.2502L7.25393 10.5861L16.5508 3.92282L13.7133 16.2502Z"
        fill="#3B3B3B" />
</svg>