<svg width="20" height="20" viewBox="0 0 20 20" fill="none" xmlns="http://www.w3.org/2000/svg">
<path d="M17.8813 2.04607C17.7844 1.96245 17.6666 1.90684 17.5405 1.88523C17.4144 1.86361 17.2848 1.87682 17.1656 1.92342L1.33283 8.11951C1.10844 8.20676 0.91847 8.36455 0.791518 8.56911C0.664565 8.77367 0.607501 9.01394 0.628917 9.25374C0.650332 9.49354 0.749068 9.71989 0.910259 9.89872C1.07145 10.0776 1.28637 10.1992 1.52267 10.2453L5.62501 11.0508V15.625C5.62421 15.8741 5.69825 16.1178 5.83755 16.3244C5.97684 16.5309 6.17498 16.6909 6.40626 16.7836C6.6372 16.8779 6.89116 16.9005 7.13513 16.8485C7.37909 16.7966 7.60178 16.6724 7.77423 16.4922L9.75236 14.4406L12.8906 17.1875C13.1171 17.3883 13.4091 17.4995 13.7117 17.5C13.8444 17.4999 13.9762 17.479 14.1024 17.4383C14.3086 17.3728 14.494 17.2545 14.6403 17.0951C14.7865 16.9357 14.8885 16.7407 14.936 16.5297L18.107 2.73435C18.1354 2.60994 18.1294 2.48015 18.0896 2.3589C18.0498 2.23765 17.9778 2.12951 17.8813 2.04607ZM13.7133 16.25L7.25392 10.5859L16.5508 3.92263L13.7133 16.25Z" fill="#3B3B3B"/>
</svg>
