<svg width="20" height="20" viewBox="0 0 20 20" fill="none" xmlns="http://www.w3.org/2000/svg">
<path d="M16.7774 16.54L11.8868 8.85403L16.7125 3.54543C16.8217 3.42241 16.8779 3.26132 16.8691 3.09709C16.8603 2.93287 16.7871 2.77874 16.6653 2.66813C16.5436 2.55753 16.3832 2.49935 16.2189 2.50621C16.0546 2.51308 15.8996 2.58443 15.7875 2.70481L11.1907 7.76106L8.02738 2.78997C7.97097 2.70118 7.89307 2.62807 7.80089 2.5774C7.7087 2.52674 7.60522 2.50015 7.50004 2.50012H3.75004C3.63797 2.50007 3.52796 2.53014 3.43151 2.5872C3.33506 2.64426 3.25573 2.7262 3.20181 2.82444C3.1479 2.92268 3.12139 3.03361 3.12507 3.14561C3.12874 3.25761 3.16246 3.36656 3.22269 3.46106L8.11332 11.1462L3.28754 16.4587C3.23118 16.5193 3.1874 16.5904 3.15874 16.668C3.13007 16.7455 3.11709 16.828 3.12054 16.9107C3.12399 16.9933 3.14381 17.0744 3.17885 17.1493C3.21389 17.2243 3.26345 17.2915 3.32465 17.3471C3.38586 17.4027 3.4575 17.4457 3.53542 17.4734C3.61334 17.5011 3.69598 17.5131 3.77857 17.5087C3.86116 17.5042 3.94204 17.4834 4.01654 17.4475C4.09103 17.4116 4.15765 17.3612 4.21253 17.2993L8.80941 12.2431L11.9727 17.2142C12.0296 17.3022 12.1077 17.3746 12.1998 17.4246C12.292 17.4745 12.3952 17.5005 12.5 17.5001H16.25C16.362 17.5001 16.4719 17.47 16.5682 17.413C16.6645 17.356 16.7438 17.2741 16.7977 17.176C16.8515 17.0779 16.8781 16.9671 16.8745 16.8552C16.871 16.7433 16.8374 16.6345 16.7774 16.54ZM12.843 16.2501L4.88832 3.75012H7.15394L15.1118 16.2501H12.843Z" fill="#3B3B3B"/>
</svg>
