<svg width="20" height="20" viewBox="0 0 20 20" fill="none" xmlns="http://www.w3.org/2000/svg">
<path d="M16.7969 17.1758C16.7431 17.2738 16.664 17.3556 16.5678 17.4126C16.4716 17.4696 16.3619 17.4998 16.2501 17.5H12.5001C12.3949 17.5 12.2914 17.4734 12.1992 17.4227C12.107 17.3721 12.0291 17.2989 11.9727 17.2102L8.80943 12.2391L4.21256 17.2953C4.1005 17.4157 3.94551 17.487 3.78119 17.4939C3.61687 17.5008 3.45647 17.4426 3.33476 17.332C3.21305 17.2214 3.13984 17.0673 3.131 16.903C3.12217 16.7388 3.17842 16.5777 3.28756 16.4547L8.11334 11.1422L3.22272 3.46094C3.16248 3.36644 3.12876 3.25749 3.12509 3.14548C3.12142 3.03348 3.14793 2.92255 3.20184 2.82431C3.25575 2.72607 3.33509 2.64413 3.43153 2.58708C3.52798 2.53002 3.638 2.49995 3.75006 2.5H7.50006C7.60525 2.50003 7.70873 2.52661 7.80091 2.57728C7.89309 2.62795 7.971 2.70106 8.0274 2.78984L11.1907 7.76094L15.7876 2.70469C15.8996 2.58431 16.0546 2.51296 16.2189 2.50609C16.3832 2.49923 16.5437 2.5574 16.6654 2.66801C16.7871 2.77862 16.8603 2.93275 16.8691 3.09697C16.878 3.2612 16.8217 3.42228 16.7126 3.54531L11.8868 8.85391L16.7774 16.5398C16.8373 16.6344 16.8707 16.7433 16.8741 16.8551C16.8776 16.967 16.8509 17.0777 16.7969 17.1758Z" fill="#3B3B3B"/>
</svg>
