<svg xmlns="http://www.w3.org/2000/svg" width="20" height="20" viewBox="0 0 20 20" fill="none">
    <path
        d="M12.8469 9.47981L9.09685 6.97981C9.00271 6.917 8.89327 6.88093 8.78022 6.87545C8.66718 6.86997 8.55476 6.8953 8.45499 6.94872C8.35521 7.00213 8.27181 7.08164 8.21369 7.17876C8.15556 7.27587 8.1249 7.38695 8.12498 7.50013V12.5001C8.1249 12.6133 8.15556 12.7244 8.21369 12.8215C8.27181 12.9186 8.35521 12.9981 8.45499 13.0515C8.55476 13.105 8.66718 13.1303 8.78022 13.1248C8.89327 13.1193 9.00271 13.0833 9.09685 13.0204L12.8469 10.5204C12.9326 10.4634 13.0029 10.386 13.0515 10.2953C13.1001 10.2045 13.1256 10.1031 13.1256 10.0001C13.1256 9.89715 13.1001 9.79576 13.0515 9.70499C13.0029 9.61422 12.9326 9.53687 12.8469 9.47981ZM9.37498 11.3322V8.672L11.3734 10.0001L9.37498 11.3322ZM18.307 5.43138C18.2334 5.14336 18.0924 4.87699 17.8955 4.65421C17.6987 4.43144 17.4517 4.25866 17.175 4.15013C14.4969 3.11575 10.2344 3.12513 9.99998 3.12513C9.7656 3.12513 5.5031 3.11575 2.82498 4.15013C2.54823 4.25866 2.30125 4.43144 2.10443 4.65421C1.9076 4.87699 1.76656 5.14336 1.69295 5.43138C1.4906 6.21106 1.24998 7.63606 1.24998 10.0001C1.24998 12.3642 1.4906 13.7892 1.69295 14.5689C1.76645 14.857 1.90744 15.1236 2.10427 15.3465C2.30111 15.5694 2.54814 15.7423 2.82498 15.8509C5.3906 16.8408 9.40623 16.8751 9.94841 16.8751H10.0515C10.5937 16.8751 14.6117 16.8408 17.175 15.8509C17.4518 15.7423 17.6988 15.5694 17.8957 15.3465C18.0925 15.1236 18.2335 14.857 18.307 14.5689C18.5094 13.7876 18.75 12.3642 18.75 10.0001C18.75 7.63606 18.5094 6.21106 18.307 5.43138ZM17.0969 14.2595C17.073 14.3554 17.0269 14.4442 16.9621 14.5187C16.8973 14.5933 16.8158 14.6514 16.7242 14.6884C14.2515 15.6431 10.0461 15.6259 10.0054 15.6259H9.99998C9.95779 15.6259 5.75545 15.6415 3.28123 14.6884C3.18964 14.6514 3.10812 14.5933 3.04334 14.5187C2.97857 14.4442 2.93238 14.3554 2.90857 14.2595C2.71873 13.5462 2.49998 12.2322 2.49998 10.0001C2.49998 7.76809 2.71873 6.45403 2.9031 5.74466C2.92647 5.64824 2.97245 5.55876 3.03726 5.48364C3.10206 5.40851 3.18381 5.34989 3.27576 5.31263C5.66013 4.39153 9.65545 4.37513 9.98279 4.37513H10.0039C10.0461 4.37513 14.2523 4.36106 16.7226 5.31263C16.8142 5.34959 16.8957 5.40773 16.9605 5.48228C17.0253 5.55684 17.0715 5.64568 17.0953 5.74153C17.2812 6.45403 17.5 7.76809 17.5 10.0001C17.5 12.2322 17.2812 13.5462 17.0969 14.2556V14.2595Z"
        fill="#3B3B3B" />
</svg>